<?xml version="1.0" encoding="UTF-8" standalone="no"?>
<!-- Created with Keyshape -->
<svg xmlns="http://www.w3.org/2000/svg" viewBox="0 0 574 14" width="574" height="14" style="white-space: pre;">
    <svg width="13.91" height="13.91">
        <g transform="translate(7.45104,6.1984) translate(-4.45371,-3.69357)">
            <path d="M4490.36,525.36L4491,525.999L4485.78,526L4491,526L4491,520.773" fill="none" stroke="#dddddd" stroke-width="1.3" stroke-linejoin="miter" stroke-linecap="butt" stroke-miterlimit="2" fill-rule="nonzero" cursor="pointer" transform="translate(17.2211,4.45265) rotate(-45) translate(-4499,-534)"/>
        </g>
    </svg>
    <svg width="13.91" height="13.91" x="14">
        <g transform="translate(7.45104,6.1984) translate(-4.45371,-3.69357)">
            <path d="M4490.22,525.219L4491,525.999L4485.78,526L4491,526L4491,520.773" fill="none" stroke="#dddddd" stroke-width="1.3" stroke-linejoin="miter" stroke-linecap="butt" stroke-miterlimit="2" fill-rule="nonzero" cursor="pointer" transform="translate(17.2961,4.45265) rotate(-45) translate(-4499,-534)"/>
        </g>
    </svg>
    <svg width="13.91" height="13.91" x="28">
        <g transform="translate(7.45104,6.1984) translate(-4.45371,-3.69357)">
            <path d="M4490.08,525.077L4491,525.999L4485.78,526L4491,526L4491,520.773" fill="none" stroke="#dddddd" stroke-width="1.3" stroke-linejoin="miter" stroke-linecap="butt" stroke-miterlimit="2" fill-rule="nonzero" cursor="pointer" transform="translate(17.3711,4.45265) rotate(-45) translate(-4499,-534)"/>
        </g>
    </svg>
    <svg width="13.91" height="13.91" x="42">
        <g transform="translate(7.45104,6.1984) translate(-4.45371,-3.69357)">
            <path d="M4489.94,524.936L4491,525.999L4485.78,526L4491,526L4491,520.773" fill="none" stroke="#dddddd" stroke-width="1.3" stroke-linejoin="miter" stroke-linecap="butt" stroke-miterlimit="2" fill-rule="nonzero" cursor="pointer" transform="translate(17.4461,4.45265) rotate(-45) translate(-4499,-534)"/>
        </g>
    </svg>
    <svg width="13.91" height="13.91" x="56">
        <g transform="translate(7.45104,6.1984) translate(-4.45371,-3.69357)">
            <path d="M4489.79,524.794L4491,525.999L4485.78,526L4491,526L4491,520.773" fill="none" stroke="#dddddd" stroke-width="1.3" stroke-linejoin="miter" stroke-linecap="butt" stroke-miterlimit="2" fill-rule="nonzero" cursor="pointer" transform="translate(17.5211,4.45265) rotate(-45) translate(-4499,-534)"/>
        </g>
    </svg>
    <svg width="13.91" height="13.91" x="70">
        <g transform="translate(7.45104,6.1984) translate(-4.45371,-3.69357)">
            <path d="M4489.65,524.653L4491,525.999L4485.78,526L4491,526L4491,520.773" fill="none" stroke="#dddddd" stroke-width="1.3" stroke-linejoin="miter" stroke-linecap="butt" stroke-miterlimit="2" fill-rule="nonzero" cursor="pointer" transform="translate(17.5961,4.45265) rotate(-45) translate(-4499,-534)"/>
        </g>
    </svg>
    <svg width="13.91" height="13.91" x="84">
        <g transform="translate(7.45104,6.1984) translate(-4.45371,-3.69357)">
            <path d="M4489.51,524.511L4491,525.999L4485.78,526L4491,526L4491,520.773" fill="none" stroke="#dddddd" stroke-width="1.3" stroke-linejoin="miter" stroke-linecap="butt" stroke-miterlimit="2" fill-rule="nonzero" cursor="pointer" transform="translate(17.6711,4.45265) rotate(-45) translate(-4499,-534)"/>
        </g>
    </svg>
    <svg width="13.91" height="13.91" x="98">
        <g transform="translate(7.45104,6.1984) translate(-4.45371,-3.69357)">
            <path d="M4489.37,524.37L4491,525.999L4485.78,526L4491,526L4491,520.773" fill="none" stroke="#dddddd" stroke-width="1.3" stroke-linejoin="miter" stroke-linecap="butt" stroke-miterlimit="2" fill-rule="nonzero" cursor="pointer" transform="translate(17.7461,4.45265) rotate(-45) translate(-4499,-534)"/>
        </g>
    </svg>
    <svg width="13.91" height="13.91" x="112">
        <g transform="translate(7.45104,6.1984) translate(-4.45371,-3.69357)">
            <path d="M4489.23,524.229L4491,525.999L4485.78,526L4491,526L4491,520.773" fill="none" stroke="#dddddd" stroke-width="1.3" stroke-linejoin="miter" stroke-linecap="butt" stroke-miterlimit="2" fill-rule="nonzero" cursor="pointer" transform="translate(17.8211,4.45265) rotate(-45) translate(-4499,-534)"/>
        </g>
    </svg>
    <svg width="13.91" height="13.91" x="126">
        <g transform="translate(7.45104,6.1984) translate(-4.45371,-3.69357)">
            <path d="M4489.09,524.087L4491,525.999L4485.78,526L4491,526L4491,520.773" fill="none" stroke="#dddddd" stroke-width="1.3" stroke-linejoin="miter" stroke-linecap="butt" stroke-miterlimit="2" fill-rule="nonzero" cursor="pointer" transform="translate(17.8961,4.45265) rotate(-45) translate(-4499,-534)"/>
        </g>
    </svg>
    <svg width="13.91" height="13.91" x="140">
        <g transform="translate(7.45104,6.1984) translate(-4.45371,-3.69357)">
            <path d="M4488.95,523.946L4491,525.999L4485.78,526L4491,526L4491,520.773" fill="none" stroke="#dddddd" stroke-width="1.3" stroke-linejoin="miter" stroke-linecap="butt" stroke-miterlimit="2" fill-rule="nonzero" cursor="pointer" transform="translate(17.9711,4.45265) rotate(-45) translate(-4499,-534)"/>
        </g>
    </svg>
    <svg width="13.91" height="13.91" x="154">
        <g transform="translate(7.45104,6.1984) translate(-4.45371,-3.69357)">
            <path d="M4488.8,523.804L4491,525.999L4485.78,526L4491,526L4491,520.773" fill="none" stroke="#dddddd" stroke-width="1.3" stroke-linejoin="miter" stroke-linecap="butt" stroke-miterlimit="2" fill-rule="nonzero" cursor="pointer" transform="translate(18.0461,4.45265) rotate(-45) translate(-4499,-534)"/>
        </g>
    </svg>
    <svg width="13.91" height="13.91" x="168">
        <g transform="translate(7.45104,6.1984) translate(-4.45371,-3.69357)">
            <path d="M4488.66,523.663L4491,525.999L4485.78,526L4491,526L4491,520.773" fill="none" stroke="#dddddd" stroke-width="1.3" stroke-linejoin="miter" stroke-linecap="butt" stroke-miterlimit="2" fill-rule="nonzero" cursor="pointer" transform="translate(18.1211,4.45265) rotate(-45) translate(-4499,-534)"/>
        </g>
    </svg>
    <svg width="13.91" height="13.91" x="182">
        <g transform="translate(7.45104,6.1984) translate(-4.45371,-3.69357)">
            <path d="M4488.52,523.521L4491,525.999L4485.78,526L4491,526L4491,520.773" fill="none" stroke="#dddddd" stroke-width="1.3" stroke-linejoin="miter" stroke-linecap="butt" stroke-miterlimit="2" fill-rule="nonzero" cursor="pointer" transform="translate(18.1961,4.45265) rotate(-45) translate(-4499,-534)"/>
        </g>
    </svg>
    <svg width="13.91" height="13.91" x="196">
        <g transform="translate(7.45104,6.1984) translate(-4.45371,-3.69357)">
            <path d="M4488.38,523.38L4491,525.999L4485.78,526L4491,526L4491,520.773" fill="none" stroke="#dddddd" stroke-width="1.3" stroke-linejoin="miter" stroke-linecap="butt" stroke-miterlimit="2" fill-rule="nonzero" cursor="pointer" transform="translate(18.2711,4.45265) rotate(-45) translate(-4499,-534)"/>
        </g>
    </svg>
    <svg width="13.91" height="13.91" x="210">
        <g transform="translate(7.45104,6.1984) translate(-4.45371,-3.69357)">
            <path d="M4488.24,523.239L4491,525.999L4485.78,526L4491,526L4491,520.773" fill="none" stroke="#dddddd" stroke-width="1.3" stroke-linejoin="miter" stroke-linecap="butt" stroke-miterlimit="2" fill-rule="nonzero" cursor="pointer" transform="translate(18.3461,4.45265) rotate(-45) translate(-4499,-534)"/>
        </g>
    </svg>
    <svg width="13.91" height="13.91" x="224">
        <g transform="translate(7.45104,6.1984) translate(-4.45371,-3.69357)">
            <path d="M4488.1,523.097L4491,525.999L4485.78,526L4491,526L4491,520.773" fill="none" stroke="#dddddd" stroke-width="1.3" stroke-linejoin="miter" stroke-linecap="butt" stroke-miterlimit="2" fill-rule="nonzero" cursor="pointer" transform="translate(18.4211,4.45265) rotate(-45) translate(-4499,-534)"/>
        </g>
    </svg>
    <svg width="13.91" height="13.91" x="238">
        <g transform="translate(7.45104,6.1984) translate(-4.45371,-3.69357)">
            <path d="M4487.95,522.956L4491,525.999L4485.78,526L4491,526L4491,520.773" fill="none" stroke="#dddddd" stroke-width="1.3" stroke-linejoin="miter" stroke-linecap="butt" stroke-miterlimit="2" fill-rule="nonzero" cursor="pointer" transform="translate(18.4961,4.45265) rotate(-45) translate(-4499,-534)"/>
        </g>
    </svg>
    <svg width="13.91" height="13.91" x="252">
        <g transform="translate(7.45104,6.1984) translate(-4.45371,-3.69357)">
            <path d="M4487.81,522.814L4491,525.999L4485.78,526L4491,526L4491,520.773" fill="none" stroke="#dddddd" stroke-width="1.3" stroke-linejoin="miter" stroke-linecap="butt" stroke-miterlimit="2" fill-rule="nonzero" cursor="pointer" transform="translate(18.5711,4.45265) rotate(-45) translate(-4499,-534)"/>
        </g>
    </svg>
    <svg width="13.91" height="13.91" x="266">
        <g transform="translate(7.45104,6.1984) translate(-4.45371,-3.69357)">
            <path d="M4487.67,522.673L4491,525.999L4485.78,526L4491,526L4491,520.773" fill="none" stroke="#dddddd" stroke-width="1.3" stroke-linejoin="miter" stroke-linecap="butt" stroke-miterlimit="2" fill-rule="nonzero" cursor="pointer" transform="translate(18.6461,4.45265) rotate(-45) translate(-4499,-534)"/>
        </g>
    </svg>
    <svg width="13.91" height="13.91" x="280">
        <g transform="translate(7.45104,6.1984) translate(-4.45371,-3.69357)">
            <path d="M4487.53,522.532L4491,525.999L4485.78,526L4491,526L4491,520.773" fill="none" stroke="#dddddd" stroke-width="1.3" stroke-linejoin="miter" stroke-linecap="butt" stroke-miterlimit="2" fill-rule="nonzero" cursor="pointer" transform="translate(18.7211,4.45265) rotate(-45) translate(-4499,-534)"/>
        </g>
    </svg>
    <svg width="13.91" height="13.91" x="294">
        <g transform="translate(7.45104,6.1984) translate(-4.45371,-3.69357)">
            <path d="M4487.39,522.39L4491,525.999L4485.78,526L4491,526L4491,520.773" fill="none" stroke="#dddddd" stroke-width="1.3" stroke-linejoin="miter" stroke-linecap="butt" stroke-miterlimit="2" fill-rule="nonzero" cursor="pointer" transform="translate(18.7961,4.45265) rotate(-45) translate(-4499,-534)"/>
        </g>
    </svg>
    <svg width="13.91" height="13.91" x="308">
        <g transform="translate(7.45104,6.1984) translate(-4.45371,-3.69357)">
            <path d="M4487.25,522.249L4491,525.999L4485.78,526L4491,526L4491,520.773" fill="none" stroke="#dddddd" stroke-width="1.3" stroke-linejoin="miter" stroke-linecap="butt" stroke-miterlimit="2" fill-rule="nonzero" cursor="pointer" transform="translate(18.8711,4.45265) rotate(-45) translate(-4499,-534)"/>
        </g>
    </svg>
    <svg width="13.91" height="13.91" x="322">
        <g transform="translate(7.45104,6.1984) translate(-4.45371,-3.69357)">
            <path d="M4487.11,522.107L4491,525.999L4485.78,526L4491,526L4491,520.773" fill="none" stroke="#dddddd" stroke-width="1.3" stroke-linejoin="miter" stroke-linecap="butt" stroke-miterlimit="2" fill-rule="nonzero" cursor="pointer" transform="translate(18.9461,4.45265) rotate(-45) translate(-4499,-534)"/>
        </g>
    </svg>
    <svg width="13.91" height="13.91" x="336">
        <g transform="translate(7.45104,6.1984) translate(-4.45371,-3.69357)">
            <path d="M4486.96,521.966L4491,525.999L4485.78,526L4491,526L4491,520.773" fill="none" stroke="#dddddd" stroke-width="1.3" stroke-linejoin="miter" stroke-linecap="butt" stroke-miterlimit="2" fill-rule="nonzero" cursor="pointer" transform="translate(19.0211,4.45265) rotate(-45) translate(-4499,-534)"/>
        </g>
    </svg>
    <svg width="13.91" height="13.91" x="350">
        <g transform="translate(7.45104,6.1984) translate(-4.45371,-3.69357)">
            <path d="M4486.82,521.824L4491,525.999L4485.78,526L4491,526L4491,520.773" fill="none" stroke="#dddddd" stroke-width="1.3" stroke-linejoin="miter" stroke-linecap="butt" stroke-miterlimit="2" fill-rule="nonzero" cursor="pointer" transform="translate(19.0961,4.45265) rotate(-45) translate(-4499,-534)"/>
        </g>
    </svg>
    <svg width="13.91" height="13.91" x="364">
        <g transform="translate(7.45104,6.1984) translate(-4.45371,-3.69357)">
            <path d="M4486.68,521.683L4491,525.999L4485.78,526L4491,526L4491,520.773" fill="none" stroke="#dddddd" stroke-width="1.3" stroke-linejoin="miter" stroke-linecap="butt" stroke-miterlimit="2" fill-rule="nonzero" cursor="pointer" transform="translate(19.1711,4.45265) rotate(-45) translate(-4499,-534)"/>
        </g>
    </svg>
    <svg width="13.91" height="13.91" x="378">
        <g transform="translate(7.45104,6.1984) translate(-4.45371,-3.69357)">
            <path d="M4486.54,521.542L4491,525.999L4485.78,526L4491,526L4491,520.773" fill="none" stroke="#dddddd" stroke-width="1.3" stroke-linejoin="miter" stroke-linecap="butt" stroke-miterlimit="2" fill-rule="nonzero" cursor="pointer" transform="translate(19.2461,4.45265) rotate(-45) translate(-4499,-534)"/>
        </g>
    </svg>
    <svg width="13.91" height="13.91" x="392">
        <g transform="translate(7.45104,6.1984) translate(-4.45371,-3.69357)">
            <path d="M4486.4,521.4L4491,525.999L4485.78,526L4491,526L4491,520.773" fill="none" stroke="#dddddd" stroke-width="1.3" stroke-linejoin="miter" stroke-linecap="butt" stroke-miterlimit="2" fill-rule="nonzero" cursor="pointer" transform="translate(19.3211,4.45265) rotate(-45) translate(-4499,-534)"/>
        </g>
    </svg>
    <svg width="13.91" height="13.91" x="406">
        <g transform="translate(7.45104,6.1984) translate(-4.45371,-3.69357)">
            <path d="M4486.26,521.259L4491,525.999L4485.78,526L4491,526L4491,520.773" fill="none" stroke="#dddddd" stroke-width="1.3" stroke-linejoin="miter" stroke-linecap="butt" stroke-miterlimit="2" fill-rule="nonzero" cursor="pointer" transform="translate(19.3961,4.45265) rotate(-45) translate(-4499,-534)"/>
        </g>
    </svg>
    <svg width="13.91" height="13.91" x="420">
        <g transform="translate(7.45104,6.1984) translate(-4.45371,-3.69357)">
            <path d="M4486.11,521.117L4491,525.999L4485.78,526L4491,526L4491,520.773" fill="none" stroke="#dddddd" stroke-width="1.3" stroke-linejoin="miter" stroke-linecap="butt" stroke-miterlimit="2" fill-rule="nonzero" cursor="pointer" transform="translate(19.4711,4.45265) rotate(-45) translate(-4499,-534)"/>
        </g>
    </svg>
    <svg width="13.91" height="13.91" x="434">
        <g transform="translate(7.45104,6.1984) translate(-4.45371,-3.69357)">
            <path d="M4485.97,520.976L4491,525.999L4485.78,526L4491,526L4491,520.773" fill="none" stroke="#dddddd" stroke-width="1.3" stroke-linejoin="miter" stroke-linecap="butt" stroke-miterlimit="2" fill-rule="nonzero" cursor="pointer" transform="translate(19.5461,4.45265) rotate(-45) translate(-4499,-534)"/>
        </g>
    </svg>
    <svg width="13.91" height="13.91" x="448">
        <g transform="translate(7.45104,6.1984) translate(-4.45371,-3.69357)">
            <path d="M4485.83,520.834L4491,525.999L4485.78,526L4491,526L4491,520.773" fill="none" stroke="#dddddd" stroke-width="1.3" stroke-linejoin="miter" stroke-linecap="butt" stroke-miterlimit="2" fill-rule="nonzero" cursor="pointer" transform="translate(19.6211,4.45265) rotate(-45) translate(-4499,-534)"/>
        </g>
    </svg>
    <svg width="13.91" height="13.91" x="462">
        <g transform="translate(7.45104,6.1984) translate(-4.45371,-3.69357)">
            <path d="M4485.69,520.693L4491,525.999L4485.78,526L4491,526L4491,520.773" fill="none" stroke="#dddddd" stroke-width="1.3" stroke-linejoin="miter" stroke-linecap="butt" stroke-miterlimit="2" fill-rule="nonzero" cursor="pointer" transform="translate(19.6961,4.45265) rotate(-45) translate(-4499,-534)"/>
        </g>
    </svg>
    <svg width="13.91" height="13.91" x="476">
        <g transform="translate(7.45104,6.1984) translate(-4.45371,-3.69357)">
            <path d="M4485.55,520.552L4491,525.999L4485.78,526L4491,526L4491,520.773" fill="none" stroke="#dddddd" stroke-width="1.3" stroke-linejoin="miter" stroke-linecap="butt" stroke-miterlimit="2" fill-rule="nonzero" cursor="pointer" transform="translate(19.7711,4.45265) rotate(-45) translate(-4499,-534)"/>
        </g>
    </svg>
    <svg width="13.91" height="13.91" x="490">
        <g transform="translate(7.45104,6.1984) translate(-4.45371,-3.69357)">
            <path d="M4485.41,520.41L4491,525.999L4485.78,526L4491,526L4491,520.773" fill="none" stroke="#dddddd" stroke-width="1.3" stroke-linejoin="miter" stroke-linecap="butt" stroke-miterlimit="2" fill-rule="nonzero" cursor="pointer" transform="translate(19.8461,4.45265) rotate(-45) translate(-4499,-534)"/>
        </g>
    </svg>
    <svg width="13.91" height="13.91" x="504">
        <g transform="translate(7.45104,6.1984) translate(-4.45371,-3.69357)">
            <path d="M4485.27,520.269L4491,525.999L4485.78,526L4491,526L4491,520.773" fill="none" stroke="#dddddd" stroke-width="1.3" stroke-linejoin="miter" stroke-linecap="butt" stroke-miterlimit="2" fill-rule="nonzero" cursor="pointer" transform="translate(19.9211,4.45265) rotate(-45) translate(-4499,-534)"/>
        </g>
    </svg>
    <svg width="13.91" height="13.91" x="518">
        <g transform="translate(7.45104,6.1984) translate(-4.45371,-3.69357)">
            <path d="M4485.12,520.127L4491,525.999L4485.78,526L4491,526L4491,520.773" fill="none" stroke="#dddddd" stroke-width="1.3" stroke-linejoin="miter" stroke-linecap="butt" stroke-miterlimit="2" fill-rule="nonzero" cursor="pointer" transform="translate(19.9961,4.45265) rotate(-45) translate(-4499,-534)"/>
        </g>
    </svg>
    <svg width="13.91" height="13.91" x="532">
        <g transform="translate(7.45104,6.1984) translate(-4.45371,-3.69357)">
            <path d="M4484.98,519.986L4491,525.999L4485.78,526L4491,526L4491,520.773" fill="none" stroke="#dddddd" stroke-width="1.3" stroke-linejoin="miter" stroke-linecap="butt" stroke-miterlimit="2" fill-rule="nonzero" cursor="pointer" transform="translate(20.0711,4.45265) rotate(-45) translate(-4499,-534)"/>
        </g>
    </svg>
    <svg width="13.91" height="13.91" x="546">
        <g transform="translate(7.45104,6.1984) translate(-4.45371,-3.69357)">
            <path d="M4484.84,519.844L4491,525.999L4485.78,526L4491,526L4491,520.773" fill="none" stroke="#dddddd" stroke-width="1.3" stroke-linejoin="miter" stroke-linecap="butt" stroke-miterlimit="2" fill-rule="nonzero" cursor="pointer" transform="translate(20.1461,4.45265) rotate(-45) translate(-4499,-534)"/>
        </g>
    </svg>
    <svg width="13.91" height="13.91" x="560">
        <g transform="translate(7.45104,6.1984) translate(-4.45371,-3.69357)">
            <path d="M4484.7,519.703L4491,525.999L4485.78,526L4491,526L4491,520.773" fill="none" stroke="#dddddd" stroke-width="1.3" stroke-linejoin="miter" stroke-linecap="butt" stroke-miterlimit="2" fill-rule="nonzero" cursor="pointer" transform="translate(20.2211,4.45265) rotate(-45) translate(-4499,-534)"/>
        </g>
    </svg>
</svg>
