<?xml version="1.0" encoding="UTF-8" standalone="no"?>
<!DOCTYPE svg PUBLIC "-//W3C//DTD SVG 1.1//EN" "http://www.w3.org/Graphics/SVG/1.1/DTD/svg11.dtd">
<svg width="100%" height="100%" viewBox="0 0 60 60" version="1.1" xmlns="http://www.w3.org/2000/svg" xmlns:xlink="http://www.w3.org/1999/xlink" xml:space="preserve" xmlns:serif="http://www.serif.com/" style="fill-rule:evenodd;clip-rule:evenodd;stroke-linejoin:round;stroke-miterlimit:2;">
    <g transform="matrix(1,0,0,1,-4119,-504)">
        <g id="pagina" transform="matrix(1.05263,0,0,1.17647,-218.895,-88.9412)">
            <rect x="4121" y="504" width="57" height="51" style="fill:none;"/>
            <g transform="matrix(5.10954,4.5717,-5.10954,4.5717,4232.47,383.374)">
                <path d="M8.159,22.449L8.159,26.593L7.565,26.593L7.565,22.449L6.31,23.704L5.89,23.284L7.443,21.732L7.565,21.609L7.565,21.609L7.566,21.609L7.863,21.312L8.159,21.609L8.159,21.609L8.159,21.609L8.282,21.732L9.835,23.284L9.415,23.704L8.159,22.449Z" style="fill:white;"/>
            </g>
        </g>
    </g>
</svg>
