<?xml version="1.0" encoding="UTF-8" standalone="no"?>
<!-- Created with Keyshape -->
<svg xmlns="http://www.w3.org/2000/svg" width="1080" height="1899.01" viewBox="0 0 1080 1899.01" clip-rule="evenodd" fill-rule="evenodd" stroke-linejoin="round" stroke-miterlimit="2" style="white-space: preserve-spaces;">
    <g id="_1080px" transform="translate(1202.14,1512.56) scale(1,1.04167) translate(-1202.14,-1452.06)">
        <rect width="1080" height="1823.04" transform="translate(540,960) translate(-540,-960)"/>
        <g id="teste.json" transform="translate(540.002,1751.04) scale(2.9052,0.505483) translate(-2396.5,-198.438)">
            <rect width="327" height="284.876" fill="rgb(204,87,80)" transform="translate(2396.5,198.438) translate(-163.5,-142.438)"/>
        </g>
        <g id="robles-matt.svg" transform="translate(954.999,1554.24) scale(0.366972,0.404387) translate(-2396.5,-198.438)">
            <rect width="327" height="284.876" fill="rgb(37,73,189)" transform="translate(2396.5,198.438) translate(-163.5,-142.438)"/>
        </g>
        <g id="teste.json1" transform="translate(819.015,1554.24) scale(0.244648,0.404387) translate(-2396.5,-198.438)">
            <rect width="490.501" height="284.876" fill="rgb(204,87,80)" transform="translate(2220.49,198.438) translate(-163.5,-142.438)"/>
        </g>
        <g id="EXPRESSIVO" transform="translate(1068.6,2195.74) scale(0.961924,0.923447) translate(-2517.46,-2059.28)">
            <g transform="translate(2092.89,1402.73) scale(125,125)"/>
            <text fill="white" font-family="Montserrat" font-size="125px" font-weight="800" transform="translate(2517.47,2059.28) translate(-1046.44,-656.553)" style="white-space: pre;">expressivo</text>
        </g>
        <g id="robles-matt.svg1" transform="translate(950.001,1367.04) scale(0.397554,0.438086) translate(-2396.5,-198.438)">
            <rect width="327" height="284.876" fill="rgb(37,73,189)" transform="translate(2396.5,198.438) translate(-163.5,-142.438)"/>
        </g>
        <g id="ANIMADOR" transform="translate(431.046,1360.09) scale(1.2043,1.15613) translate(-1553.95,-1168.14)">
            <g transform="translate(1856.95,1224.34) scale(135.271,135.271)"/>
            <text fill="white" font-family="'Playfair Display'" font-size="135.271px" font-style="italic" font-weight="700" transform="translate(1553.93,1168.14) translate(-302.992,56.2047)">Animador</text>
        </g>
        <g id="teste.json2" transform="translate(930.001,1155.84) scale(0.519878,0.572881) translate(-2396.5,-198.438)">
            <rect width="327" height="284.876" fill="rgb(204,87,80)" transform="translate(2396.5,198.438) translate(-163.5,-142.438)"/>
        </g>
        <g id="UNICO" transform="translate(560.373,1182.81) scale(1.91887,1.84212) translate(-1814.95,-1023.78)">
            <text fill="white" font-family="Opal" font-size="114.185px" font-style="italic" font-weight="500" transform="translate(1802.44,1023.78) translate(-127.18,28.5462)" style="white-space: pre;">Único</text>
        </g>
        <g id="teste.json3" transform="translate(149.998,1155.84) scale(0.519878,0.572881) translate(-2396.5,-198.438)">
            <rect width="327" height="284.876" fill="rgb(204,87,80)" transform="translate(2396.5,198.438) translate(-163.5,-142.438)"/>
        </g>
        <g id="ILUSTRADOR" transform="translate(635.072,944.976) scale(2.00837,1.92803) translate(-1720.17,-1053.4)">
            <text fill="white" font-family="'Bebas Neue',sans-serif" font-size="104.167px" transform="translate(1720.17,1053.4) translate(-191.242,31.2502)">Ilustrador</text>
        </g>
        <g id="robles-matt.svg2" transform="translate(140.001,935.04) scale(0.458716,0.505483) translate(-2396.5,-198.438)">
            <rect width="327" height="284.876" fill="rgb(37,73,189)" transform="translate(2396.5,198.438) translate(-163.5,-142.438)"/>
        </g>
        <g id="robles-matt.svg3" transform="translate(922.499,757.44) scale(0.565749,0.269591) translate(-2396.5,-198.438)">
            <rect width="327" height="284.876" fill="rgb(37,73,189)" transform="translate(2396.5,198.438) translate(-163.5,-142.438)"/>
        </g>
        <g id="MINIMALISTA" transform="translate(429.575,754.328) scale(0.962387,0.923892) translate(-1991.26,-828.478)">
            <text fill="white" font-family="'Space Mono',monospace" font-size="114.185px" transform="translate(1991.26,828.478) translate(-384.312,43.3334)">minimalista</text>
        </g>
        <g id="robles-matt.svg4" transform="translate(964.999,587.04) scale(0.30581,0.336989) translate(-2396.5,-198.438)">
            <rect width="327" height="284.876" fill="rgb(37,73,189)" transform="translate(2396.5,198.438) translate(-163.5,-142.438)"/>
        </g>
        <g id="teste.json4" transform="translate(833.347,587.04) scale(0.30581,0.336989) translate(-2396.5,-198.438)">
            <rect width="327" height="284.876" fill="rgb(204,87,80)" transform="translate(2396.5,198.438) translate(-163.5,-142.438)"/>
        </g>
        <g id="DESIGNER" transform="translate(403.284,576.436) scale(0.911905,0.875429) translate(-1869.07,-665.792)">
            <text fill="white" font-family="'Archivo Black',sans-serif" font-size="158.333px" transform="translate(1869.07,665.792) translate(-382.68,52.8832)">Designer</text>
        </g>
        <g id="ROBLES-MATT" transform="translate(1341.75,799.659) scale(1,0.96) translate(-2512.93,-1180.11)">
            <g transform="translate(2179.79,819.542) scale(135.271,135.271)"/>
            <text fill="white" font-family="Inter" font-size="135.271px" font-style="italic" font-weight="600" transform="translate(2512.93,1180.11) translate(-1089.88,-360.564)" style="white-space: pre;">Robles Matt</text>
        </g>
        <g id="teste.json5" transform="translate(135.002,407.04) scale(0.428135,0.336989) translate(-2396.5,-198.438)">
            <rect width="327" height="284.876" fill="rgb(204,87,80)" transform="translate(2396.5,198.438) translate(-163.5,-142.438)"/>
        </g>
        <g id="robles-matt.svg5" transform="translate(900,181.44) scale(0.703364,0.775074) translate(-2396.5,-198.438)">
            <rect width="327" height="284.876" fill="rgb(37,73,189)" transform="translate(2396.5,198.438) translate(-163.5,-142.438)"/>
        </g>
        <g id="EU-SOU" transform="translate(402.012,181.996) scale(13.2613,12.7308) translate(-1463.79,-673.144)">
            <g transform="translate(1489.93,681.616) scale(20,20)"/>
            <text fill="white" font-family="'Anton'" font-size="20px" transform="translate(1463.79,673.144) translate(-26.1641,8.47168)">Eu sou</text>
        </g>
    </g>
</svg>
