<?xml version="1.0" encoding="UTF-8" standalone="no"?>
<!-- Created with Keyshape -->
<svg xmlns="http://www.w3.org/2000/svg" viewBox="0 0 360 60" width="360" height="60" style="white-space: pre;">
    <svg width="60" height="60">
        <g transform="translate(29.6057,30.7566) rotate(-180) translate(-4.45371,-3.69357)">
            <path d="M4490.36,525.36L4491,525.999L4485.78,526L4491,526L4491,520.773" fill="none" stroke="#dddddd" stroke-width="1.3" stroke-linejoin="miter" stroke-linecap="butt" stroke-miterlimit="2" fill-rule="nonzero" cursor="pointer" transform="translate(34.0789,4.45512) rotate(-45) scale(2,2) translate(-4499,-534)"/>
        </g>
    </svg>
    <svg width="60" height="60" x="60">
        <g transform="translate(29.6057,30.7566) rotate(-180) translate(-4.45371,-3.69357)">
            <path d="M4489.23,524.229L4491,525.999L4485.78,526L4491,526L4491,520.773" fill="none" stroke="#dddddd" stroke-width="1.3" stroke-linejoin="miter" stroke-linecap="butt" stroke-miterlimit="2" fill-rule="nonzero" cursor="pointer" transform="translate(34.3819,4.45512) rotate(-45) scale(2,2) translate(-4499,-534)"/>
        </g>
    </svg>
    <svg width="60" height="60" x="120">
        <g transform="translate(29.6057,30.7566) rotate(-180) translate(-4.45371,-3.69357)">
            <path d="M4488.1,523.097L4491,525.999L4485.78,526L4491,526L4491,520.773" fill="none" stroke="#dddddd" stroke-width="1.3" stroke-linejoin="miter" stroke-linecap="butt" stroke-miterlimit="2" fill-rule="nonzero" cursor="pointer" transform="translate(34.685,4.45512) rotate(-45) scale(2,2) translate(-4499,-534)"/>
        </g>
    </svg>
    <svg width="60" height="60" x="180">
        <g transform="translate(29.6057,30.7566) rotate(-180) translate(-4.45371,-3.69357)">
            <path d="M4486.96,521.966L4491,525.999L4485.78,526L4491,526L4491,520.773" fill="none" stroke="#dddddd" stroke-width="1.3" stroke-linejoin="miter" stroke-linecap="butt" stroke-miterlimit="2" fill-rule="nonzero" cursor="pointer" transform="translate(34.9881,4.45512) rotate(-45) scale(2,2) translate(-4499,-534)"/>
        </g>
    </svg>
    <svg width="60" height="60" x="240">
        <g transform="translate(29.6057,30.7566) rotate(-180) translate(-4.45371,-3.69357)">
            <path d="M4485.83,520.834L4491,525.999L4485.78,526L4491,526L4491,520.773" fill="none" stroke="#dddddd" stroke-width="1.3" stroke-linejoin="miter" stroke-linecap="butt" stroke-miterlimit="2" fill-rule="nonzero" cursor="pointer" transform="translate(35.2911,4.45512) rotate(-45) scale(2,2) translate(-4499,-534)"/>
        </g>
    </svg>
    <svg width="60" height="60" x="300">
        <g transform="translate(29.6057,30.7566) rotate(-180) translate(-4.45371,-3.69357)">
            <path d="M4484.7,519.703L4491,525.999L4485.78,526L4491,526L4491,520.773" fill="none" stroke="#dddddd" stroke-width="1.3" stroke-linejoin="miter" stroke-linecap="butt" stroke-miterlimit="2" fill-rule="nonzero" cursor="pointer" transform="translate(35.5942,4.45512) rotate(-45) scale(2,2) translate(-4499,-534)"/>
        </g>
    </svg>
</svg>
